<svg xmlns="http://www.w3.org/2000/svg" viewBox="0 0 1280 640" width="1280" height="640">
  <defs>
    <style type="text/css">
      @import url('https://fonts.googleapis.com/css2?family=Inter:wght@400;500;600;700');
      text { font-family: 'Inter', -apple-system, BlinkMacSystemFont, 'Segoe UI', sans-serif; }
    </style>

    <!-- ========== FILTERS ========== -->
    <filter id="blob-blur" x="-50%" y="-50%" width="200%" height="200%">
      <feGaussianBlur stdDeviation="60"/>
    </filter>
    <filter id="blob-blur-lg" x="-50%" y="-50%" width="200%" height="200%">
      <feGaussianBlur stdDeviation="80"/>
    </filter>
    <filter id="card-shadow" x="-20%" y="-20%" width="140%" height="140%">
      <feGaussianBlur stdDeviation="24" in="SourceAlpha" result="shadow"/>
      <feOffset dx="0" dy="8" in="shadow" result="offsetShadow"/>
      <feFlood flood-color="#000000" flood-opacity="0.35" result="color"/>
      <feComposite in="color" in2="offsetShadow" operator="in" result="finalShadow"/>
      <feMerge><feMergeNode in="finalShadow"/><feMergeNode in="SourceGraphic"/></feMerge>
    </filter>
    <filter id="glow" x="-30%" y="-30%" width="160%" height="160%">
      <feGaussianBlur stdDeviation="3" result="blur"/>
      <feMerge><feMergeNode in="blur"/><feMergeNode in="SourceGraphic"/></feMerge>
    </filter>
    <filter id="noise" x="0%" y="0%" width="100%" height="100%">
      <feTurbulence type="fractalNoise" baseFrequency="0.65" numOctaves="3" stitchTiles="stitch" result="n"/>
      <feColorMatrix type="saturate" values="0" in="n" result="gn"/>
      <feComponentTransfer in="gn" result="sn"><feFuncA type="linear" slope="0.025"/></feComponentTransfer>
      <feBlend in="SourceGraphic" in2="sn" mode="normal"/>
    </filter>

    <!-- ========== GRADIENTS ========== -->
    <linearGradient id="accent-h" x1="0" y1="0" x2="1" y2="0">
      <stop offset="0%" stop-color="#3B82F6"/><stop offset="50%" stop-color="#06B6D4"/><stop offset="100%" stop-color="#10B981"/>
    </linearGradient>
    <linearGradient id="accent-d" x1="0" y1="0" x2="1" y2="1">
      <stop offset="0%" stop-color="#3B82F6"/><stop offset="50%" stop-color="#06B6D4"/><stop offset="100%" stop-color="#10B981"/>
    </linearGradient>
    <linearGradient id="text-accent" x1="80" y1="0" x2="300" y2="0" gradientUnits="userSpaceOnUse">
      <stop offset="0%" stop-color="#3B82F6"/><stop offset="50%" stop-color="#06B6D4"/><stop offset="100%" stop-color="#10B981"/>
    </linearGradient>
    <radialGradient id="vignette" cx="50%" cy="50%" r="70%">
      <stop offset="0%" stop-color="#0D1117" stop-opacity="0"/><stop offset="100%" stop-color="#000000" stop-opacity="0.4"/>
    </radialGradient>
    <linearGradient id="shimmer" gradientUnits="userSpaceOnUse" x1="0" y1="0" x2="480" y2="470">
      <stop offset="0%" stop-color="#FFFFFF" stop-opacity="0"/>
      <stop offset="45%" stop-color="#FFFFFF" stop-opacity="0"/>
      <stop offset="50%" stop-color="#FFFFFF" stop-opacity="0.03"/>
      <stop offset="55%" stop-color="#FFFFFF" stop-opacity="0"/>
      <stop offset="100%" stop-color="#FFFFFF" stop-opacity="0"/>
      <animateTransform attributeName="gradientTransform" type="translate" values="-600,0;600,0" dur="6s" repeatCount="indefinite"/>
    </linearGradient>

    <!-- ========== DOT GRID ========== -->
    <pattern id="dots" x="0" y="0" width="32" height="32" patternUnits="userSpaceOnUse">
      <circle cx="16" cy="16" r="0.6" fill="#FFFFFF" opacity="0.06"/>
    </pattern>

    <!-- ========== CLIP PATHS: 30s cycle, 5 phrases ========== -->
    <clipPath id="type-1">
      <rect x="80" y="295" width="0" height="30">
        <animate attributeName="width" values="0;200;200;0;0" keyTimes="0;0.067;0.133;0.18;1" dur="30s" repeatCount="indefinite"/>
      </rect>
    </clipPath>
    <clipPath id="type-2">
      <rect x="80" y="295" width="0" height="30">
        <animate attributeName="width" values="0;0;240;240;0;0" keyTimes="0;0.2;0.267;0.333;0.38;1" dur="30s" repeatCount="indefinite"/>
      </rect>
    </clipPath>
    <clipPath id="type-3">
      <rect x="80" y="295" width="0" height="30">
        <animate attributeName="width" values="0;0;270;270;0;0" keyTimes="0;0.4;0.467;0.533;0.58;1" dur="30s" repeatCount="indefinite"/>
      </rect>
    </clipPath>
    <clipPath id="type-4">
      <rect x="80" y="295" width="0" height="30">
        <animate attributeName="width" values="0;0;300;300;0;0" keyTimes="0;0.6;0.667;0.733;0.78;1" dur="30s" repeatCount="indefinite"/>
      </rect>
    </clipPath>
    <clipPath id="type-5">
      <rect x="80" y="295" width="0" height="30">
        <animate attributeName="width" values="0;0;380;380;0;0" keyTimes="0;0.8;0.867;0.933;0.98;1" dur="30s" repeatCount="indefinite"/>
      </rect>
    </clipPath>
  </defs>

  <!-- ==================== BACKGROUND ==================== -->
  <rect width="1280" height="640" fill="#0D1117"/>
  <rect width="1280" height="640" fill="url(#dots)" opacity="0.8"/>

  <!-- Gradient blobs — 6 for depth -->
  <circle cx="180" cy="250" r="240" fill="#3B82F6" opacity="0.08" filter="url(#blob-blur-lg)">
    <animateTransform attributeName="transform" type="translate" values="0,0;55,-35;25,55;-35,25;0,0" dur="22s" repeatCount="indefinite"/>
    <animate attributeName="opacity" values="0.08;0.11;0.06;0.1;0.08" dur="22s" repeatCount="indefinite"/>
  </circle>
  <circle cx="950" cy="160" r="280" fill="#06B6D4" opacity="0.06" filter="url(#blob-blur-lg)">
    <animateTransform attributeName="transform" type="translate" values="0,0;-45,40;35,-30;-25,-35;0,0" dur="28s" repeatCount="indefinite"/>
    <animate attributeName="opacity" values="0.06;0.08;0.04;0.07;0.06" dur="28s" repeatCount="indefinite"/>
  </circle>
  <circle cx="1100" cy="500" r="220" fill="#10B981" opacity="0.06" filter="url(#blob-blur)">
    <animateTransform attributeName="transform" type="translate" values="0,0;35,25;-30,45;45,-35;0,0" dur="25s" repeatCount="indefinite"/>
    <animate attributeName="opacity" values="0.06;0.08;0.04;0.07;0.06" dur="25s" repeatCount="indefinite"/>
  </circle>
  <circle cx="640" cy="520" r="200" fill="#3B82F6" opacity="0.04" filter="url(#blob-blur)">
    <animateTransform attributeName="transform" type="translate" values="0,0;-25,-45;45,15;-15,35;0,0" dur="20s" repeatCount="indefinite"/>
  </circle>
  <!-- NEW: deeper depth blobs -->
  <circle cx="350" cy="500" r="180" fill="#6366F1" opacity="0.035" filter="url(#blob-blur-lg)">
    <animateTransform attributeName="transform" type="translate" values="0,0;30,-20;-20,40;15,-30;0,0" dur="24s" repeatCount="indefinite"/>
  </circle>
  <circle cx="800" cy="350" r="160" fill="#06B6D4" opacity="0.03" filter="url(#blob-blur)">
    <animateTransform attributeName="transform" type="translate" values="0,0;-15,25;20,-15;-25,10;0,0" dur="19s" repeatCount="indefinite"/>
  </circle>

  <rect width="1280" height="640" fill="url(#vignette)"/>

  <!-- Accent lines -->
  <rect x="0" y="0" width="1280" height="1.5" fill="url(#accent-h)" opacity="0.4">
    <animate attributeName="opacity" values="0.3;0.5;0.3" dur="4s" repeatCount="indefinite"/>
  </rect>
  <rect x="0" y="638.5" width="1280" height="1.5" fill="url(#accent-h)" opacity="0.15">
    <animate attributeName="opacity" values="0.1;0.2;0.1" dur="5s" repeatCount="indefinite"/>
  </rect>

  <!-- ==================== PARTICLES (4, minimal) ==================== -->
  <g opacity="0.5">
    <circle cx="300" cy="540" r="1.2" fill="#3B82F6">
      <animateTransform attributeName="transform" type="translate" values="0,0;15,-90;-10,-180" dur="14s" repeatCount="indefinite"/>
      <animate attributeName="opacity" values="0;0.4;0" dur="14s" repeatCount="indefinite"/>
    </circle>
    <circle cx="550" cy="570" r="1" fill="#06B6D4">
      <animateTransform attributeName="transform" type="translate" values="0,0;-12,-75;8,-160" dur="17s" repeatCount="indefinite"/>
      <animate attributeName="opacity" values="0;0.35;0" dur="17s" repeatCount="indefinite"/>
    </circle>
    <circle cx="160" cy="490" r="1.3" fill="#10B981">
      <animateTransform attributeName="transform" type="translate" values="0,0;20,-60;-8,-140" dur="20s" repeatCount="indefinite"/>
      <animate attributeName="opacity" values="0;0.3;0" dur="20s" repeatCount="indefinite"/>
    </circle>
    <circle cx="450" cy="560" r="0.8" fill="#6366F1">
      <animateTransform attributeName="transform" type="translate" values="0,0;-10,-100;14,-200" dur="16s" repeatCount="indefinite"/>
      <animate attributeName="opacity" values="0;0.35;0" dur="16s" repeatCount="indefinite"/>
    </circle>
  </g>

  <!-- ==================== LEFT: GREETING + NAME (62px — 15% bigger) ==================== -->
  <text x="80" y="140" fill="#8B949E" font-size="16" font-weight="400" opacity="0">
    Hi, I'm
    <animate attributeName="opacity" values="0;1" dur="0.6s" begin="0.3s" fill="freeze"/>
  </text>
  <text x="80" y="202" fill="#F0F6FC" font-size="62" font-weight="700" letter-spacing="-2" opacity="0">
    Shreshth
    <animate attributeName="opacity" values="0;1" dur="0.6s" begin="0.5s" fill="freeze"/>
  </text>
  <text x="80" y="264" fill="#F0F6FC" font-size="62" font-weight="700" letter-spacing="-2" opacity="0">
    Chaurasiya
    <animate attributeName="opacity" values="0;1" dur="0.6s" begin="0.7s" fill="freeze"/>
  </text>

  <!-- Accent gradient line -->
  <rect x="80" y="282" width="0" height="3" rx="1.5" fill="url(#accent-h)" opacity="0.9">
    <animate attributeName="width" values="0;64" dur="0.8s" begin="1s" fill="freeze"/>
    <animate attributeName="width" values="64;72;64" dur="3s" begin="1.8s" repeatCount="indefinite"/>
  </rect>

  <!-- ==================== TYPING ANIMATION (30s cycle, slower) ==================== -->
  <g clip-path="url(#type-1)">
    <text x="80" y="318" fill="#8B949E" font-size="20" font-weight="400">Software Builder</text>
  </g>
  <g clip-path="url(#type-2)">
    <text x="80" y="318" fill="#8B949E" font-size="20" font-weight="400">Full Stack Developer</text>
  </g>
  <g clip-path="url(#type-3)">
    <text x="80" y="318" fill="#8B949E" font-size="20" font-weight="400">Building SaaS Products</text>
  </g>
  <g clip-path="url(#type-4)">
    <text x="80" y="318" fill="#8B949E" font-size="20" font-weight="400">Building Digital Products</text>
  </g>
  <g clip-path="url(#type-5)">
    <text x="80" y="318" fill="#8B949E" font-size="20" font-weight="400">Turning Ideas Into Software</text>
  </g>

  <!-- Blinking cursor tracking typing -->
  <rect y="298" width="2" height="24" rx="1" fill="#3B82F6" filter="url(#glow)">
    <animate attributeName="opacity" values="0;0;1;1" dur="1s" repeatCount="indefinite"/>
    <animate attributeName="x" values="80;280;280;80;80;320;320;80;80;350;350;80;80;380;380;80;80;460;460;80;80" keyTimes="0;0.067;0.133;0.18;0.2;0.267;0.333;0.38;0.4;0.467;0.533;0.58;0.6;0.667;0.733;0.78;0.8;0.867;0.933;0.98;1" dur="30s" repeatCount="indefinite"/>
  </rect>

  <!-- ==================== PERMANENT BRAND LINE ==================== -->
  <text x="80" y="352" fill="url(#text-accent)" font-size="14" font-weight="600" letter-spacing="0.5" opacity="0">
    Software Builder
    <animate attributeName="opacity" values="0;1" dur="0.8s" begin="1.2s" fill="freeze"/>
  </text>
  <text x="80" y="374" fill="#8B949E" font-size="12" font-weight="400" opacity="0" letter-spacing="0.2">
    Building Digital Products That Solve Real Problems.
    <animate attributeName="opacity" values="0;0.55" dur="0.8s" begin="1.4s" fill="freeze"/>
  </text>

  <!-- ==================== GLASS BADGE ==================== -->
  <g opacity="0">
    <animate attributeName="opacity" values="0;1" dur="0.6s" begin="1.8s" fill="freeze"/>

    <!-- Badge background -->
    <rect x="80" y="396" width="264" height="78" rx="12" fill="#161B22" fill-opacity="0.5" stroke="#FFFFFF" stroke-opacity="0.05" stroke-width="0.5"/>

    <!-- Left accent bar -->
    <rect x="81" y="404" width="2.5" height="62" rx="1.25" fill="url(#accent-d)" opacity="0.4">
      <animate attributeName="opacity" values="0.3;0.5;0.3" dur="4s" repeatCount="indefinite"/>
    </rect>

    <!-- Badge items -->
    <circle cx="104" cy="418" r="2" fill="#3B82F6" opacity="0.7"/>
    <text x="114" y="422" fill="#8B949E" font-size="12" font-weight="400">17 Years Old</text>

    <circle cx="104" cy="438" r="2" fill="#06B6D4" opacity="0.7"/>
    <text x="114" y="442" fill="#8B949E" font-size="12" font-weight="400">Building Software Since 2025</text>

    <circle cx="104" cy="458" r="2" fill="#10B981" opacity="0.7"/>
    <text x="114" y="462" fill="#8B949E" font-size="12" font-weight="400">Available For Freelance</text>
  </g>

  <!-- ==================== SOCIAL SVG ICONS ==================== -->
  <g opacity="0">
    <animate attributeName="opacity" values="0;1" dur="0.6s" begin="2s" fill="freeze"/>

    <!-- GitHub -->
    <g transform="translate(80, 498)" opacity="0.55">
      <circle cx="14" cy="14" r="16" fill="#FFFFFF" opacity="0.03" stroke="#FFFFFF" stroke-opacity="0.06" stroke-width="0.5">
        <animate attributeName="stroke-opacity" values="0.06;0.14;0.06" dur="4s" repeatCount="indefinite"/>
      </circle>
      <g transform="translate(6, 6)">
        <path d="M8 0C3.58 0 0 3.58 0 8c0 3.54 2.29 6.53 5.47 7.59.4.07.55-.17.55-.38 0-.19-.01-.82-.01-1.49-2.01.37-2.53-.49-2.69-.94-.09-.23-.48-.94-.82-1.13-.28-.15-.68-.52-.01-.53.63-.01 1.08.58 1.23.82.72 1.21 1.87.87 2.33.66.07-.52.28-.87.51-1.07-1.78-.2-3.64-.89-3.64-3.95 0-.87.31-1.59.82-2.15-.08-.2-.36-1.02.08-2.12 0 0 .67-.21 2.2.82.64-.18 1.32-.27 2-.27.68 0 1.36.09 2 .27 1.53-1.04 2.2-.82 2.2-.82.44 1.1.16 1.92.08 2.12.51.56.82 1.27.82 2.15 0 3.07-1.87 3.75-3.65 3.95.29.25.54.73.54 1.48 0 1.07-.01 1.93-.01 2.2 0 .21.15.46.55.38A8.013 8.013 0 0016 8c0-4.42-3.58-8-8-8z" fill="#8B949E"/>
      </g>
    </g>

    <!-- LinkedIn -->
    <g transform="translate(124, 498)" opacity="0.55">
      <circle cx="14" cy="14" r="16" fill="#FFFFFF" opacity="0.03" stroke="#FFFFFF" stroke-opacity="0.06" stroke-width="0.5">
        <animate attributeName="stroke-opacity" values="0.06;0.14;0.06" dur="4.5s" repeatCount="indefinite"/>
      </circle>
      <g transform="translate(6, 6)">
        <path d="M0 1.146C0 .513.526 0 1.175 0h13.65C15.474 0 16 .513 16 1.146v13.708c0 .633-.526 1.146-1.175 1.146H1.175C.526 16 0 15.487 0 14.854V1.146zm4.943 12.248V6.169H2.542v7.225h2.401zm-1.2-8.212c.837 0 1.358-.554 1.358-1.248-.015-.709-.52-1.248-1.342-1.248-.822 0-1.359.54-1.359 1.248 0 .694.521 1.248 1.327 1.248h.016zm4.908 8.212V9.359c0-.216.016-.432.08-.586.173-.431.568-.878 1.232-.878.869 0 1.216.662 1.216 1.634v3.865h2.401V9.25c0-2.22-1.184-3.252-2.764-3.252-1.274 0-1.845.7-2.165 1.193v.025h-.016a5.54 5.54 0 01.016-.025V6.169h-2.4c.03.678 0 7.225 0 7.225h2.4z" fill="#8B949E"/>
      </g>
    </g>

    <!-- Portfolio (Globe) -->
    <g transform="translate(168, 498)" opacity="0.55">
      <circle cx="14" cy="14" r="16" fill="#FFFFFF" opacity="0.03" stroke="#FFFFFF" stroke-opacity="0.06" stroke-width="0.5">
        <animate attributeName="stroke-opacity" values="0.06;0.14;0.06" dur="5s" repeatCount="indefinite"/>
      </circle>
      <g transform="translate(6, 6)">
        <circle cx="8" cy="8" r="6" fill="none" stroke="#8B949E" stroke-width="1.3"/>
        <ellipse cx="8" cy="8" rx="2.8" ry="6" fill="none" stroke="#8B949E" stroke-width="1.3"/>
        <line x1="2" y1="8" x2="14" y2="8" stroke="#8B949E" stroke-width="1.3"/>
      </g>
    </g>

    <!-- Email (Mail) -->
    <g transform="translate(212, 498)" opacity="0.55">
      <circle cx="14" cy="14" r="16" fill="#FFFFFF" opacity="0.03" stroke="#FFFFFF" stroke-opacity="0.06" stroke-width="0.5">
        <animate attributeName="stroke-opacity" values="0.06;0.14;0.06" dur="4.2s" repeatCount="indefinite"/>
      </circle>
      <g transform="translate(6, 6)">
        <rect x="1" y="3.5" width="14" height="9.5" rx="1.5" fill="none" stroke="#8B949E" stroke-width="1.3"/>
        <polyline points="1,3.5 8,9 15,3.5" fill="none" stroke="#8B949E" stroke-width="1.3" stroke-linejoin="round"/>
      </g>
    </g>
  </g>

  <!-- ==================== RIGHT: GLASS CARD ==================== -->
  <g filter="url(#card-shadow)" opacity="0">
    <animate attributeName="opacity" values="0;1" dur="0.8s" begin="0.8s" fill="freeze"/>
    <rect x="720" y="85" width="480" height="470" rx="16" fill="#161B22" fill-opacity="0.75" stroke="#FFFFFF" stroke-opacity="0.06" stroke-width="1"/>
    <rect x="720" y="85" width="480" height="470" rx="16" fill="none" stroke="url(#accent-d)" stroke-width="1" opacity="0.12">
      <animate attributeName="opacity" values="0.08;0.2;0.08" dur="4s" repeatCount="indefinite"/>
    </rect>
    <rect x="720" y="85" width="480" height="470" rx="16" fill="url(#shimmer)"/>
    <animateTransform attributeName="transform" type="translate" values="0,0;0,-4;0,0;0,3;0,0" dur="8s" repeatCount="indefinite"/>
  </g>

  <!-- Card content (floating in sync) -->
  <g opacity="0">
    <animate attributeName="opacity" values="0;1" dur="0.8s" begin="1s" fill="freeze"/>
    <animateTransform attributeName="transform" type="translate" values="0,0;0,-4;0,0;0,3;0,0" dur="8s" repeatCount="indefinite"/>

    <!-- Location -->
    <circle cx="762" cy="130" r="3" fill="#3B82F6" opacity="0.6"/>
    <text x="776" y="134" fill="#8B949E" font-size="13" font-weight="400">Prayagraj, India</text>

    <!-- Age -->
    <circle cx="762" cy="154" r="3" fill="#06B6D4" opacity="0.6"/>
    <text x="776" y="158" fill="#8B949E" font-size="13" font-weight="400">17 years old</text>

    <!-- Separator -->
    <line x1="756" y1="177" x2="1164" y2="177" stroke="#FFFFFF" stroke-opacity="0.05" stroke-width="1"/>

    <!-- CURRENT FOCUS -->
    <text x="756" y="199" fill="#F0F6FC" font-size="11" font-weight="600" letter-spacing="1.5" opacity="0.65">CURRENT FOCUS</text>
    <text fill="#8B949E" font-size="13" font-weight="400">
      <tspan x="756" y="221">&#x25B9;  Building SaaS Products</tspan>
      <tspan x="756" y="241">&#x25B9;  Backend Systems</tspan>
      <tspan x="756" y="261">&#x25B9;  Product Development</tspan>
    </text>

    <!-- Separator -->
    <line x1="756" y1="283" x2="1164" y2="283" stroke="#FFFFFF" stroke-opacity="0.05" stroke-width="1"/>

    <!-- CURRENT PROJECTS (NEW) -->
    <text x="756" y="305" fill="#F0F6FC" font-size="11" font-weight="600" letter-spacing="1.5" opacity="0.65">CURRENT PROJECTS</text>
    <text fill="#8B949E" font-size="13" font-weight="400">
      <tspan x="756" y="327">&#x25B9;  Gym Management SaaS</tspan>
      <tspan x="756" y="347">&#x25B9;  Success OS</tspan>
      <tspan x="756" y="367">&#x25B9;  Backend APIs</tspan>
    </text>

    <!-- Separator -->
    <line x1="756" y1="389" x2="1164" y2="389" stroke="#FFFFFF" stroke-opacity="0.05" stroke-width="1"/>

    <!-- TECH STACK -->
    <text x="756" y="411" fill="#F0F6FC" font-size="11" font-weight="600" letter-spacing="1.5" opacity="0.65">TECH STACK</text>

    <!-- Pills Row 1 -->
    <rect x="756" y="424" width="48" height="24" rx="12" fill="#3B82F6" fill-opacity="0.08" stroke="#3B82F6" stroke-opacity="0.2" stroke-width="0.5"/>
    <text x="780" y="440" text-anchor="middle" fill="#8B949E" font-size="11" font-weight="500">HTML</text>

    <rect x="812" y="424" width="40" height="24" rx="12" fill="#3B82F6" fill-opacity="0.08" stroke="#3B82F6" stroke-opacity="0.2" stroke-width="0.5"/>
    <text x="832" y="440" text-anchor="middle" fill="#8B949E" font-size="11" font-weight="500">CSS</text>

    <rect x="860" y="424" width="30" height="24" rx="12" fill="#3B82F6" fill-opacity="0.08" stroke="#3B82F6" stroke-opacity="0.2" stroke-width="0.5"/>
    <text x="875" y="440" text-anchor="middle" fill="#8B949E" font-size="11" font-weight="500">JS</text>

    <rect x="898" y="424" width="54" height="24" rx="12" fill="#06B6D4" fill-opacity="0.08" stroke="#06B6D4" stroke-opacity="0.2" stroke-width="0.5"/>
    <text x="925" y="440" text-anchor="middle" fill="#8B949E" font-size="11" font-weight="500">React</text>

    <rect x="960" y="424" width="58" height="24" rx="12" fill="#06B6D4" fill-opacity="0.08" stroke="#06B6D4" stroke-opacity="0.2" stroke-width="0.5"/>
    <text x="989" y="440" text-anchor="middle" fill="#8B949E" font-size="11" font-weight="500">Python</text>

    <!-- Pills Row 2 -->
    <rect x="756" y="456" width="62" height="24" rx="12" fill="#10B981" fill-opacity="0.08" stroke="#10B981" stroke-opacity="0.2" stroke-width="0.5"/>
    <text x="787" y="472" text-anchor="middle" fill="#8B949E" font-size="11" font-weight="500">FastAPI</text>

    <rect x="826" y="456" width="72" height="24" rx="12" fill="#10B981" fill-opacity="0.08" stroke="#10B981" stroke-opacity="0.2" stroke-width="0.5"/>
    <text x="862" y="472" text-anchor="middle" fill="#8B949E" font-size="11" font-weight="500">MongoDB</text>

    <rect x="906" y="456" width="34" height="24" rx="12" fill="#FFFFFF" fill-opacity="0.04" stroke="#FFFFFF" stroke-opacity="0.1" stroke-width="0.5"/>
    <text x="923" y="472" text-anchor="middle" fill="#8B949E" font-size="11" font-weight="500">Git</text>

    <rect x="948" y="456" width="50" height="24" rx="12" fill="#FFFFFF" fill-opacity="0.04" stroke="#FFFFFF" stroke-opacity="0.1" stroke-width="0.5"/>
    <text x="973" y="472" text-anchor="middle" fill="#8B949E" font-size="11" font-weight="500">Linux</text>

    <rect x="1006" y="456" width="42" height="24" rx="12" fill="#FFFFFF" fill-opacity="0.04" stroke="#FFFFFF" stroke-opacity="0.1" stroke-width="0.5"/>
    <text x="1027" y="472" text-anchor="middle" fill="#8B949E" font-size="11" font-weight="500">Vite</text>

    <!-- Status indicator -->
    <g transform="translate(756, 496)">
      <circle cx="5" cy="5" r="4" fill="#10B981" opacity="0.8">
        <animate attributeName="opacity" values="0.5;1;0.5" dur="2s" repeatCount="indefinite"/>
      </circle>
      <circle cx="5" cy="5" r="4" fill="none" stroke="#10B981" stroke-width="1" opacity="0">
        <animate attributeName="r" values="4;10;10" dur="2s" repeatCount="indefinite"/>
        <animate attributeName="opacity" values="0.6;0;0" dur="2s" repeatCount="indefinite"/>
      </circle>
      <text x="18" y="9" fill="#8B949E" font-size="12" font-weight="400" opacity="0.65">Available for projects</text>
    </g>
  </g>

  <!-- ==================== NOISE OVERLAY ==================== -->
  <rect width="1280" height="640" filter="url(#noise)" opacity="0.5" fill="none"/>
</svg>
